<svg version="1.0" xmlns="http://www.w3.org/2000/svg" width="172.000000pt" height="115.000000pt"
    viewBox="0 0 172.000000 115.000000" preserveAspectRatio="xMidYMid meet">

    <g transform="translate(0.000000,115.000000) scale(0.100000,-0.100000)" fill="#000000" stroke="none">
        <path d="M860 1090 l0 -50 370 0 370 0 2 -377 3 -378 47 -3 47 -3 3 413 c2
227 1 421 -1 431 -3 16 -31 17 -422 17 l-419 0 0 -50z" />
        <path d="M18 448 c-2 -227 -2 -419 0 -425 3 -10 97 -13 423 -13 l419 0 0 45 0
45 -370 0 -370 0 0 380 0 380 -49 0 -49 0 -4 -412z" />
        <path d="M572 839 c-6 -13 -53 -136 -106 -272 -53 -137 -96 -253 -96 -258 0
-6 24 -9 52 -7 l53 3 54 153 c29 84 55 151 57 150 2 -2 27 -71 57 -153 l53
-150 53 -3 c49 -3 53 -2 48 17 -9 35 -200 526 -208 535 -5 5 -12 -1 -17 -15z" />
        <path d="M1115 846 c-102 -25 -171 -84 -195 -167 -19 -65 -12 -179 14 -235 44
-95 122 -133 289 -141 l107 -6 0 177 0 176 -105 0 -105 0 0 -55 0 -55 55 0 56
0 -3 -67 c-3 -78 -12 -84 -88 -63 -94 25 -149 127 -121 227 24 87 93 123 235
123 l76 0 0 50 0 50 -82 -1 c-46 0 -106 -6 -133 -13z" />
    </g>
</svg>